<svg width="355" height="368" viewBox="0 0 355 368" fill="none" xmlns="http://www.w3.org/2000/svg">
<g clip-path="url(#clip0_3_34)">
<path d="M163.5 0L113.192 87.5H0L62.8846 175L0 262.5H113.192L163.5 350L213.808 262.5H327L264.115 175L327 87.5H213.808L163.5 0Z" fill="#190477"/>
<g clip-path="url(#clip1_3_34)">
<path d="M6.12552 276.811L108.449 276.542L166.607 376.277L210.772 276.274L319.558 287.087L261.4 187.352L312.027 98.4311L209.704 98.6994L151.546 -1.03534L107.38 98.9677L-1.40516 88.1544L56.7529 187.889L6.12552 276.811Z" fill="#1E97CE"/>
</g>
</g>
<g clip-path="url(#clip2_3_34)">
<path d="M163 -7L111.923 82.5H-3L60.8462 172L-3 261.5H111.923L163 351L214.077 261.5H329L265.154 172L329 82.5H214.077L163 -7Z" fill="#1E97CE"/>
</g>
<g clip-path="url(#clip3_3_34)">
<path d="M8.12552 265.581L110.449 265.313L168.607 365.048L212.772 265.044L321.558 275.858L263.4 176.123L314.027 87.2017L211.704 87.47L153.546 -12.2647L109.38 87.7383L0.594838 76.925L58.7529 176.66L8.12552 265.581Z" fill="#1E97CE"/>
</g>
<path d="M214 88L183.231 146.25H114L152.462 204.5L114 262.75H183.231L214 321L244.769 262.75H314L275.538 204.5L314 146.25H244.769L214 88Z" fill="white"/>
<path d="M186.625 233L183.325 220.4H169L165.775 233H154.375L168.55 180.65H184.45L198.625 233H186.625ZM176.5 191.525H175.9L170.8 211.325H181.6L176.5 191.525ZM225.296 209.675L225.896 195.05H225.221L215.471 221.975L205.721 195.05H205.046L205.646 209.675V233H195.896V180.65H209.171L215.621 198.275H216.221L222.671 180.65H235.046V233H225.296V209.675ZM270.266 180.65V218.375C270.266 220.725 269.841 222.875 268.991 224.825C268.191 226.725 267.016 228.35 265.466 229.7C263.966 231.05 262.141 232.1 259.991 232.85C257.841 233.55 255.441 233.9 252.791 233.9C247.441 233.9 243.291 232.575 240.341 229.925C237.441 227.225 235.591 223.7 234.791 219.35L245.441 217.175C245.841 219.425 246.591 221.25 247.691 222.65C248.841 224.05 250.541 224.75 252.791 224.75C254.691 224.75 256.166 224.15 257.216 222.95C258.316 221.7 258.866 219.8 258.866 217.25V189.875H241.616V180.65H270.266ZM287.712 233H276.612V180.65H296.862C299.412 180.65 301.687 181.05 303.687 181.85C305.687 182.6 307.362 183.7 308.712 185.15C310.112 186.6 311.162 188.35 311.862 190.4C312.562 192.45 312.912 194.75 312.912 197.3C312.912 201 312.112 204.175 310.512 206.825C308.912 209.475 306.637 211.225 303.687 212.075L313.962 233H301.662L292.887 213.575H287.712V233ZM294.162 204.875C296.812 204.875 298.637 204.375 299.637 203.375C300.687 202.375 301.212 200.725 301.212 198.425V196.175C301.212 193.875 300.687 192.225 299.637 191.225C298.637 190.225 296.812 189.725 294.162 189.725H287.712V204.875H294.162ZM333.583 233.9C326.583 233.9 321.383 231.55 317.983 226.85C314.633 222.1 312.958 215.425 312.958 206.825C312.958 198.225 314.633 191.575 317.983 186.875C321.383 182.125 326.583 179.75 333.583 179.75C336.283 179.75 338.658 180.125 340.708 180.875C342.808 181.575 344.608 182.575 346.108 183.875C347.608 185.175 348.833 186.75 349.783 188.6C350.783 190.45 351.558 192.525 352.108 194.825L341.608 197.375C341.308 196.125 340.958 194.975 340.558 193.925C340.158 192.875 339.633 191.975 338.983 191.225C338.383 190.475 337.608 189.9 336.658 189.5C335.758 189.05 334.658 188.825 333.358 188.825C330.308 188.825 328.133 190.025 326.833 192.425C325.583 194.775 324.958 198.05 324.958 202.25V211.4C324.958 215.6 325.583 218.9 326.833 221.3C328.133 223.65 330.308 224.825 333.358 224.825C335.958 224.825 337.833 224.025 338.983 222.425C340.183 220.825 341.058 218.775 341.608 216.275L352.108 218.825C351.558 221.125 350.783 223.2 349.783 225.05C348.833 226.9 347.608 228.5 346.108 229.85C344.608 231.15 342.808 232.15 340.708 232.85C338.658 233.55 336.283 233.9 333.583 233.9Z" fill="#190477"/>
<rect x="245" y="146" width="107" height="5" fill="#190477"/>
<defs>
<clipPath id="clip0_3_34">
<rect width="267" height="350" fill="white"/>
</clipPath>
<clipPath id="clip1_3_34">
<rect width="107.493" height="9.02729" fill="white" transform="translate(263.148 187.406) rotate(-120.248)"/>
</clipPath>
<clipPath id="clip2_3_34">
<rect width="107" height="105" fill="white" transform="translate(111 263)"/>
</clipPath>
<clipPath id="clip3_3_34">
<rect width="107.493" height="103.859" fill="white" transform="translate(265.148 176.177) rotate(-120.248)"/>
</clipPath>
</defs>
</svg>
